<?xml version="1.0" encoding="iso-8859-1"?>
<!-- Generator: Adobe Illustrator 19.0.0, SVG Export Plug-In . SVG Version: 6.00 Build 0)  -->
<svg version="1.1" id="Layer_1" xmlns="http://www.w3.org/2000/svg" xmlns:xlink="http://www.w3.org/1999/xlink" x="0px" y="0px"
	 viewBox="0 0 473.931 473.931" style="enable-background:new 0 0 473.931 473.931;" xml:space="preserve">
<circle style="fill:#FFC200;" cx="236.966" cy="236.966" r="236.966"/>
<g>
	<path style="fill:#3D4040;" d="M249.459,217.718c18.118,18.118,38.652-11.831,49.994-23.173
		c10.859-10.859,21.721-21.725,32.58-32.583c1.01,11.352,2.099,22.709,3.772,33.949c2.653,17.867,24.782,24.542,32.946,8.801
		c0.842-1.119,1.381-2.522,1.594-4.157c0.374-1.523,0.382-2.922,0.079-4.176c-0.292-14.724-0.584-29.448-0.876-44.175
		c-0.284-14.353,1.643-29.953-3.611-43.431c-0.206-0.76-0.468-1.534-0.861-2.316c-1.059-2.122-4.539-8.976-0.109-0.116
		c-1.265-2.522-3.588-3.974-6.148-4.513c-12.408-4.707-26.17-3.147-39.457-3.412c-16.501-0.329-33.002-0.655-49.503-0.992
		c-19.068-0.382-19.745,24.123-5.818,32.28c6.956,4.079,18.14,3.611,25.863,4.404c4.969,0.513,9.938,0.977,14.915,1.463
		c-10.795,10.787-21.582,21.579-32.366,32.362C261.126,179.253,231.394,199.653,249.459,217.718z"/>
	<path style="fill:#3D4040;" d="M96.736,198.014c-0.382,19.068,24.116,19.745,32.273,5.818c4.079-6.956,3.611-18.133,4.4-25.863
		c0.513-4.965,0.98-9.938,1.463-14.907c10.787,10.787,21.575,21.582,32.366,32.366c11.319,11.326,31.726,41.055,49.799,22.986
		c18.11-18.11-11.839-38.645-23.18-49.99c-10.859-10.859-21.721-21.721-32.587-32.579c11.356-1.014,22.712-2.103,33.953-3.772
		c17.867-2.657,24.527-24.774,8.808-32.95c-1.119-0.834-2.522-1.373-4.157-1.594c-1.527-0.374-2.93-0.382-4.195-0.079
		c-14.72,0.292-29.436,0.584-44.164,0.876c-14.309,0.284-29.867-1.631-43.322,3.57c-0.621,0.157-1.227,0.397-1.826,0.7
		c-0.198,0.082-0.4,0.131-0.591,0.225c0.03,0.015,0.067,0.026,0.101,0.041c-0.109,0.06-0.213,0.105-0.314,0.168
		c0.666-0.906,0.52-0.995-1.908,1.433c-1.557,1.557-2.376,3.296-2.69,5.059c-4.494,12.284-2.975,25.878-3.237,39
		C97.394,165.015,97.065,181.513,96.736,198.014z"/>
	<path style="fill:#3D4040;" d="M103.781,364.238c0,0,0-0.007-0.007-0.007C105.263,365.712,106.651,367.108,103.781,364.238z"/>
	<path style="fill:#3D4040;" d="M103.767,364.223c0.007,0,0.007,0.004,0.007,0.004C102.217,362.666,100.579,361.035,103.767,364.223
		z"/>
	<path style="fill:#3D4040;" d="M217.729,250.844c-18.118-18.118-38.652,11.831-49.994,23.173
		c-10.859,10.862-21.721,21.728-32.579,32.587c-1.01-11.356-2.099-22.712-3.772-33.953c-2.653-17.863-24.774-24.527-32.946-8.808
		c-0.834,1.123-1.381,2.529-1.594,4.165c-0.382,1.527-0.382,2.93-0.079,4.187c0.292,14.72,0.584,29.44,0.876,44.164
		c0.277,14.077-1.572,29.347,3.311,42.641c0.307,1.774,1.126,3.525,2.698,5.096c0.052,0.056,0.079,0.082,0.131,0.138
		c1.557,1.542,3.289,2.365,5.036,2.675c12.292,4.505,25.893,2.982,39.012,3.244c16.501,0.329,33.002,0.659,49.503,0.988
		c19.068,0.378,19.745-24.119,5.818-32.28c-6.956-4.079-18.14-3.607-25.863-4.4c-4.969-0.513-9.938-0.973-14.915-1.463
		c10.795-10.788,21.582-21.575,32.366-32.362C206.074,289.309,235.795,268.909,217.729,250.844z"/>
	<path style="fill:#3D4040;" d="M370.46,270.54c0.382-19.068-24.116-19.749-32.28-5.818c-4.071,6.956-3.603,18.133-4.4,25.859
		c-0.513,4.969-0.973,9.942-1.463,14.911c-10.788-10.791-21.575-21.582-32.359-32.366c-11.326-11.326-31.73-41.055-49.799-22.986
		c-18.118,18.11,11.831,38.649,23.173,49.986c10.866,10.862,21.728,21.725,32.587,32.583c-11.356,1.014-22.712,2.103-33.953,3.772
		c-17.867,2.657-24.527,24.774-8.801,32.95c1.119,0.834,2.522,1.373,4.15,1.594c1.534,0.374,2.937,0.382,4.195,0.079
		c14.72-0.292,29.444-0.584,44.164-0.876c14.077-0.281,29.35,1.564,42.641-3.311c1.777-0.307,3.528-1.126,5.1-2.698
		c2.425-2.432,2.339-2.574,1.426-1.901c0.06-0.105,0.108-0.217,0.168-0.322c0.015,0.037,0.03,0.071,0.045,0.101
		c0.086-0.202,0.146-0.408,0.236-0.61c0.284-0.565,0.513-1.152,0.674-1.747c4.831-12.471,3.244-26.327,3.51-39.704
		C369.802,303.539,370.131,287.042,370.46,270.54z"/>
</g>
<g>
</g>
<g>
</g>
<g>
</g>
<g>
</g>
<g>
</g>
<g>
</g>
<g>
</g>
<g>
</g>
<g>
</g>
<g>
</g>
<g>
</g>
<g>
</g>
<g>
</g>
<g>
</g>
<g>
</g>
</svg>
